<svg xmlns="http://www.w3.org/2000/svg" xmlns:xlink="http://www.w3.org/1999/xlink" width="50" zoomAndPan="magnify" viewBox="0 0 37.5 37.499999" height="50" preserveAspectRatio="xMidYMid meet" version="1.0"><defs><clipPath id="4c6b8231f6"><path d="M 0 0 L 37.007812 0 L 37.007812 37.007812 L 0 37.007812 Z M 0 0 " clip-rule="nonzero"/></clipPath></defs><path fill="#ffffff" d="M 31.125 27.613281 L 26.566406 27.613281 C 25.886719 27.613281 25.335938 28.164062 25.335938 28.847656 C 25.335938 29.527344 25.886719 30.082031 26.566406 30.082031 L 31.125 30.082031 C 31.804688 30.082031 32.359375 29.527344 32.359375 28.847656 C 32.359375 28.164062 31.804688 27.613281 31.125 27.613281 Z M 31.125 27.613281 " fill-opacity="1" fill-rule="nonzero"/><g clip-path="url(#4c6b8231f6)"><path fill="#ffffff" d="M 37.007812 18.503906 C 37.007812 8.300781 28.707031 0 18.503906 0 C 8.300781 0 0 8.300781 0 18.503906 C 0 28.707031 8.300781 37.007812 18.503906 37.007812 C 20.660156 37.007812 22.765625 36.636719 24.773438 35.910156 C 25.972656 36.605469 27.363281 37.007812 28.847656 37.007812 C 33.347656 37.007812 37.007812 33.347656 37.007812 28.847656 C 37.007812 27.363281 36.605469 25.972656 35.910156 24.773438 C 36.636719 22.765625 37.007812 20.660156 37.007812 18.503906 Z M 18.503906 2.46875 C 27.34375 2.46875 34.539062 9.660156 34.539062 18.503906 C 34.539062 19.878906 34.363281 21.230469 34.023438 22.542969 C 32.613281 21.382812 30.808594 20.6875 28.847656 20.6875 C 28.308594 20.6875 27.78125 20.742188 27.273438 20.839844 L 27.277344 20.835938 C 26.089844 20.195312 24.835938 19.6875 23.539062 19.324219 C 25.390625 17.84375 26.582031 15.566406 26.582031 13.011719 C 26.582031 8.558594 22.957031 4.933594 18.503906 4.933594 C 14.046875 4.933594 10.425781 8.558594 10.425781 13.011719 C 10.425781 15.5625 11.613281 17.839844 13.464844 19.320312 C 9.792969 20.355469 6.519531 22.503906 4.089844 25.527344 C 3.050781 23.40625 2.46875 21.023438 2.46875 18.503906 C 2.46875 9.660156 9.660156 2.46875 18.503906 2.46875 Z M 12.890625 13.011719 C 12.890625 9.917969 15.410156 7.402344 18.503906 7.402344 C 21.597656 7.402344 24.113281 9.917969 24.113281 13.011719 C 24.113281 16.105469 21.597656 18.625 18.503906 18.625 C 15.410156 18.625 12.890625 16.105469 12.890625 13.011719 Z M 5.457031 27.8125 C 8.472656 23.589844 13.289062 21.089844 18.503906 21.089844 C 20.453125 21.089844 22.390625 21.453125 24.203125 22.140625 C 22.082031 23.617188 20.6875 26.070312 20.6875 28.847656 C 20.6875 30.808594 21.382812 32.613281 22.542969 34.023438 C 21.230469 34.363281 19.878906 34.539062 18.503906 34.539062 C 13.128906 34.539062 8.371094 31.878906 5.457031 27.8125 Z M 28.847656 34.539062 C 25.707031 34.539062 23.152344 31.984375 23.152344 28.847656 C 23.152344 25.707031 25.707031 23.15625 28.847656 23.15625 C 31.984375 23.15625 34.539062 25.707031 34.539062 28.847656 C 34.539062 31.984375 31.984375 34.539062 28.847656 34.539062 Z M 28.847656 34.539062 " fill-opacity="1" fill-rule="nonzero"/></g></svg>