<svg xmlns="http://www.w3.org/2000/svg" xmlns:xlink="http://www.w3.org/1999/xlink" width="50" zoomAndPan="magnify" viewBox="0 0 37.5 37.499999" height="50" preserveAspectRatio="xMidYMid meet" version="1.0"><defs><clipPath id="76634b93d5"><path d="M 0 0 L 37.007812 0 L 37.007812 37.007812 L 0 37.007812 Z M 0 0 " clip-rule="nonzero"/></clipPath></defs><g clip-path="url(#76634b93d5)"><path fill="#ffffff" d="M 18.503906 0 C 8.300781 0 0 8.300781 0 18.503906 C 0 28.707031 8.300781 37.007812 18.503906 37.007812 C 28.707031 37.007812 37.007812 28.707031 37.007812 18.503906 C 37.007812 8.300781 28.707031 0 18.503906 0 Z M 18.503906 2.46875 C 27.34375 2.46875 34.539062 9.660156 34.539062 18.503906 C 34.539062 21.023438 33.953125 23.40625 32.914062 25.527344 C 30.484375 22.503906 27.210938 20.351562 23.542969 19.320312 C 25.394531 17.839844 26.582031 15.5625 26.582031 13.011719 C 26.582031 8.558594 22.957031 4.933594 18.503906 4.933594 C 14.046875 4.933594 10.425781 8.558594 10.425781 13.011719 C 10.425781 15.5625 11.613281 17.839844 13.464844 19.320312 C 9.792969 20.355469 6.519531 22.503906 4.089844 25.527344 C 3.050781 23.40625 2.46875 21.023438 2.46875 18.503906 C 2.46875 9.660156 9.660156 2.46875 18.503906 2.46875 Z M 12.890625 13.011719 C 12.890625 9.917969 15.410156 7.402344 18.503906 7.402344 C 21.597656 7.402344 24.113281 9.917969 24.113281 13.011719 C 24.113281 16.105469 21.597656 18.625 18.503906 18.625 C 15.410156 18.625 12.890625 16.105469 12.890625 13.011719 Z M 18.503906 34.539062 C 13.128906 34.539062 8.371094 31.878906 5.457031 27.8125 C 8.472656 23.589844 13.289062 21.089844 18.503906 21.089844 C 23.71875 21.089844 28.53125 23.589844 31.546875 27.8125 C 28.636719 31.878906 23.875 34.539062 18.503906 34.539062 Z M 18.503906 34.539062 " fill-opacity="1" fill-rule="nonzero"/></g></svg>