<svg xmlns="http://www.w3.org/2000/svg" xmlns:xlink="http://www.w3.org/1999/xlink" width="50" zoomAndPan="magnify" viewBox="0 0 37.5 37.499999" height="50" preserveAspectRatio="xMidYMid meet" version="1.0"><defs><clipPath id="cdf7271db7"><path d="M 0 0 L 25 0 L 25 37.007812 L 0 37.007812 Z M 0 0 " clip-rule="nonzero"/></clipPath></defs><g clip-path="url(#cdf7271db7)"><path fill="#ffffff" d="M 23.4375 24.929688 C 23.273438 24.929688 23.117188 24.960938 22.964844 25.023438 C 22.8125 25.085938 22.679688 25.175781 22.566406 25.292969 C 22.449219 25.40625 22.359375 25.539062 22.296875 25.691406 C 22.234375 25.84375 22.203125 26 22.203125 26.164062 L 22.203125 34.539062 L 17.269531 34.539062 C 17.269531 34.539062 17.269531 34.476562 17.269531 34.441406 L 17.269531 26.164062 C 17.269531 26 17.238281 25.84375 17.175781 25.691406 C 17.113281 25.539062 17.023438 25.40625 16.910156 25.292969 C 16.792969 25.175781 16.660156 25.085938 16.507812 25.023438 C 16.355469 24.960938 16.199219 24.929688 16.035156 24.929688 C 15.871094 24.929688 15.714844 24.960938 15.5625 25.023438 C 15.414062 25.085938 15.28125 25.175781 15.164062 25.292969 C 15.046875 25.40625 14.960938 25.539062 14.898438 25.691406 C 14.832031 25.84375 14.800781 26 14.800781 26.164062 L 14.800781 34.441406 C 14.800781 34.441406 14.800781 34.441406 14.800781 34.539062 L 2.46875 34.539062 L 2.46875 3.132812 L 14.800781 8.636719 L 14.800781 10.84375 C 14.800781 11.007812 14.832031 11.164062 14.898438 11.316406 C 14.960938 11.464844 15.046875 11.597656 15.164062 11.714844 C 15.28125 11.832031 15.414062 11.921875 15.5625 11.984375 C 15.714844 12.046875 15.871094 12.078125 16.035156 12.078125 C 16.199219 12.078125 16.355469 12.046875 16.507812 11.984375 C 16.660156 11.921875 16.792969 11.832031 16.910156 11.714844 C 17.023438 11.597656 17.113281 11.464844 17.175781 11.316406 C 17.238281 11.164062 17.269531 11.007812 17.269531 10.84375 L 17.269531 7.871094 C 17.273438 7.816406 17.273438 7.761719 17.269531 7.710938 C 17.253906 7.601562 17.226562 7.5 17.183594 7.402344 C 17.152344 7.328125 17.113281 7.261719 17.058594 7.203125 C 17.023438 7.136719 16.980469 7.070312 16.9375 7.007812 C 16.863281 6.9375 16.78125 6.878906 16.691406 6.832031 L 16.554688 6.734375 L 6.996094 2.46875 L 22.203125 2.46875 L 22.203125 10.84375 C 22.203125 11.007812 22.234375 11.164062 22.296875 11.316406 C 22.359375 11.464844 22.449219 11.597656 22.566406 11.714844 C 22.679688 11.832031 22.8125 11.921875 22.964844 11.984375 C 23.117188 12.046875 23.273438 12.078125 23.4375 12.078125 C 23.601562 12.078125 23.757812 12.046875 23.910156 11.984375 C 24.0625 11.921875 24.195312 11.832031 24.308594 11.714844 C 24.425781 11.597656 24.515625 11.464844 24.578125 11.316406 C 24.640625 11.164062 24.671875 11.007812 24.671875 10.84375 L 24.671875 1.234375 C 24.671875 1.070312 24.640625 0.914062 24.578125 0.761719 C 24.515625 0.609375 24.425781 0.476562 24.308594 0.359375 C 24.195312 0.246094 24.0625 0.15625 23.910156 0.09375 C 23.757812 0.03125 23.601562 0 23.4375 0 L 1.234375 0 C 1.179688 -0.00390625 1.125 -0.00390625 1.074219 0 C 0.972656 -0.0117188 0.875 -0.0117188 0.777344 0 L 0.566406 0.136719 C 0.5 0.167969 0.4375 0.210938 0.382812 0.257812 C 0.308594 0.335938 0.246094 0.421875 0.199219 0.519531 C 0.199219 0.519531 0.199219 0.59375 0.109375 0.640625 C 0.046875 0.746094 0.0117188 0.863281 0 0.988281 C -0.00390625 1.070312 -0.00390625 1.152344 0 1.234375 L 0 35.773438 C 0 35.9375 0.03125 36.09375 0.09375 36.246094 C 0.15625 36.394531 0.246094 36.53125 0.359375 36.644531 C 0.476562 36.761719 0.609375 36.851562 0.761719 36.914062 C 0.914062 36.976562 1.070312 37.007812 1.234375 37.007812 L 23.4375 37.007812 C 23.601562 37.007812 23.757812 36.976562 23.910156 36.914062 C 24.0625 36.851562 24.195312 36.761719 24.308594 36.644531 C 24.425781 36.53125 24.515625 36.394531 24.578125 36.246094 C 24.640625 36.09375 24.671875 35.9375 24.671875 35.773438 L 24.671875 26.164062 C 24.671875 26 24.640625 25.84375 24.578125 25.691406 C 24.515625 25.539062 24.425781 25.40625 24.308594 25.292969 C 24.195312 25.175781 24.0625 25.085938 23.910156 25.023438 C 23.757812 24.960938 23.601562 24.929688 23.4375 24.929688 Z M 23.4375 24.929688 " fill-opacity="1" fill-rule="nonzero"/></g><path fill="#ffffff" d="M 36.625 17.613281 L 28.628906 9.941406 C 28.453125 9.773438 28.242188 9.664062 27.996094 9.621094 C 27.753906 9.578125 27.519531 9.605469 27.289062 9.703125 C 27.0625 9.800781 26.882812 9.953125 26.746094 10.160156 C 26.613281 10.367188 26.542969 10.59375 26.546875 10.84375 L 26.546875 13.308594 L 11.742188 13.308594 C 11.578125 13.308594 11.421875 13.339844 11.269531 13.402344 C 11.121094 13.464844 10.988281 13.554688 10.871094 13.671875 C 10.753906 13.785156 10.667969 13.921875 10.605469 14.070312 C 10.542969 14.222656 10.511719 14.378906 10.511719 14.542969 L 10.511719 22.511719 C 10.511719 22.675781 10.542969 22.832031 10.605469 22.984375 C 10.667969 23.136719 10.753906 23.269531 10.871094 23.382812 C 10.988281 23.5 11.121094 23.589844 11.269531 23.652344 C 11.421875 23.714844 11.578125 23.746094 11.742188 23.746094 L 26.546875 23.746094 L 26.546875 26.214844 C 26.546875 26.460938 26.613281 26.6875 26.75 26.894531 C 26.886719 27.101562 27.070312 27.25 27.296875 27.347656 C 27.453125 27.417969 27.613281 27.449219 27.78125 27.445312 C 28.109375 27.449219 28.390625 27.335938 28.628906 27.113281 L 36.625 19.441406 C 36.746094 19.324219 36.835938 19.1875 36.902344 19.035156 C 36.96875 18.882812 37 18.71875 37 18.550781 C 37 18.386719 36.96875 18.222656 36.902344 18.070312 C 36.835938 17.914062 36.746094 17.78125 36.625 17.664062 Z M 29.011719 23.277344 L 29.011719 22.488281 C 29.011719 22.324219 28.980469 22.167969 28.917969 22.015625 C 28.855469 21.863281 28.765625 21.730469 28.652344 21.617188 C 28.535156 21.5 28.402344 21.410156 28.25 21.347656 C 28.101562 21.285156 27.941406 21.253906 27.78125 21.253906 L 12.976562 21.253906 L 12.976562 15.753906 L 27.78125 15.753906 C 27.941406 15.753906 28.101562 15.722656 28.25 15.660156 C 28.402344 15.597656 28.535156 15.507812 28.652344 15.390625 C 28.765625 15.277344 28.855469 15.140625 28.917969 14.992188 C 28.980469 14.839844 29.011719 14.683594 29.011719 14.519531 L 29.011719 13.730469 L 33.949219 18.503906 Z M 29.011719 23.277344 " fill-opacity="1" fill-rule="nonzero"/></svg>